<svg width="88" height="84" viewBox="0 0 88 84" fill="none" xmlns="http://www.w3.org/2000/svg">
<path d="M40.7292 1.69114C40.8412 3.39633 40.8163 5.11396 40.6545 6.8067C40.6296 7.01829 40.6172 7.22989 40.5798 7.42903C40.5674 7.5286 40.555 7.62818 40.5425 7.72775C40.5301 7.87711 40.5799 7.49127 40.5425 7.71531C40.5301 7.77754 40.53 7.85222 40.5176 7.91445C40.4554 8.33764 40.3807 8.76082 40.306 9.184C40.1442 10.0304 39.9326 10.8767 39.6837 11.6982C39.5592 12.0841 39.4348 12.4699 39.2979 12.8558C39.2232 13.0425 39.1609 13.2291 39.0738 13.4158C39.0613 13.4532 39.0115 13.5154 39.0115 13.5652C39.0115 13.4408 39.0863 13.4034 39.0365 13.4905C38.9867 13.5901 38.9493 13.6897 38.8995 13.7892C38.6008 14.4489 38.2399 15.0837 37.8416 15.6811C37.7545 15.8181 37.6549 15.955 37.5553 16.0919C37.5055 16.1666 37.4433 16.2412 37.3935 16.3159C37.3686 16.3408 37.3437 16.3781 37.3313 16.403C37.4557 16.179 37.3811 16.3408 37.3437 16.3906C37.1197 16.6769 36.8708 16.9631 36.6218 17.237C36.3729 17.4983 36.1239 17.7473 35.8501 17.9962C35.7257 18.1082 35.5888 18.2202 35.4519 18.3323C35.3896 18.382 35.3274 18.4318 35.2652 18.4816C35.1656 18.5563 35.4518 18.3323 35.3025 18.4567C35.2527 18.4941 35.2153 18.519 35.1656 18.5563C34.8419 18.7928 34.5059 19.0168 34.1574 19.216C33.8089 19.4151 33.448 19.5645 33.087 19.7512C33.0995 19.7387 33.2986 19.6641 33.1616 19.7138C33.1119 19.7387 33.0621 19.7512 33.0123 19.7761C32.9127 19.8134 32.8132 19.8507 32.7012 19.8881C32.5145 19.9503 32.3277 20.0126 32.1286 20.0623C31.7428 20.1744 31.3445 20.249 30.9462 20.2988C30.7346 20.3237 30.4856 20.5478 30.3861 20.722C30.2865 20.9087 30.2492 21.1079 30.2741 21.3195C30.3363 21.7675 30.7221 22.1285 31.1951 22.1285C32.1037 22.116 33.0123 22.116 33.9209 22.1783C34.1325 22.1907 34.3316 22.2156 34.5432 22.2405C34.5557 22.2405 34.7797 22.2778 34.6304 22.2529C34.4686 22.2281 34.6926 22.2654 34.7175 22.2654C34.8295 22.2779 34.9415 22.3027 35.0536 22.3276C35.5016 22.4148 35.9373 22.5268 36.3604 22.6637C36.4351 22.6886 36.5222 22.7259 36.5969 22.7508C36.6343 22.7633 36.684 22.7882 36.7214 22.8006C36.7961 22.8255 36.8708 22.9002 36.6716 22.7757C36.821 22.8753 37.0077 22.9251 37.1695 23.0122C37.4806 23.174 37.7794 23.3483 38.0532 23.5474C38.1279 23.5972 38.2025 23.647 38.2772 23.7092C38.3021 23.7341 38.3395 23.759 38.3644 23.7714C38.4888 23.8586 38.3146 23.7341 38.3021 23.7217C38.4266 23.8461 38.5884 23.9581 38.7253 24.0702C38.9991 24.3191 39.2605 24.568 39.5094 24.8418C39.6214 24.9663 39.7335 25.0908 39.833 25.2152C39.8828 25.2775 39.9326 25.3397 39.9949 25.4144C40.0696 25.514 39.8579 25.2277 39.97 25.3771C40.0073 25.4268 40.0322 25.4642 40.0695 25.514C40.2811 25.8002 40.4678 26.099 40.6545 26.3977C40.8412 26.7088 41.0155 27.0324 41.1773 27.3561C41.252 27.5179 41.3266 27.6797 41.4013 27.8415C41.4138 27.8788 41.4262 27.9162 41.4511 27.9411C41.3515 27.7046 41.4137 27.8415 41.4386 27.9037C41.476 28.0033 41.5134 28.0904 41.5507 28.19C41.837 28.9368 42.0485 29.696 42.2104 30.4677C42.2601 30.6917 42.2975 30.9033 42.3348 31.1274C42.3473 31.2145 42.3597 31.3141 42.3846 31.4012C42.397 31.4759 42.4095 31.5381 42.4095 31.6128C42.4095 31.5755 42.3971 31.5381 42.3971 31.5008C42.3971 31.5506 42.4095 31.5879 42.4095 31.6377C42.4593 32.0858 42.5091 32.5214 42.534 32.9695C42.6709 35.0232 42.5464 37.0893 42.4095 39.1306C42.3846 39.5911 42.7829 39.9894 43.2185 40.0516C43.6791 40.1138 44.1022 39.8276 44.2391 39.3795C45.2224 36.2554 45.3469 32.957 46.0813 29.7831C46.2431 29.0737 46.4297 28.3642 46.6787 27.6672C46.7285 27.5179 46.7907 27.3685 46.8405 27.2316C46.8654 27.1569 46.9152 27.0822 46.9401 26.9951C46.9401 27.0076 46.8529 27.2067 46.9151 27.0698C46.9276 27.0325 46.9525 26.9827 46.965 26.9453C47.1019 26.6466 47.2388 26.3603 47.3882 26.0741C47.6869 25.5015 48.0354 24.9539 48.4212 24.4436C48.4461 24.4187 48.471 24.3813 48.4834 24.3564C48.359 24.5431 48.3963 24.4684 48.4337 24.4187C48.4834 24.3564 48.5333 24.2942 48.583 24.232C48.6826 24.1075 48.7946 23.983 48.9066 23.8586C49.1182 23.6221 49.3423 23.398 49.5663 23.1989C49.7032 23.0744 49.8277 22.9624 49.977 22.8504C50.0019 22.8255 50.0268 22.813 50.0642 22.7882C49.8401 22.9624 50.0019 22.8379 50.0393 22.8006C50.1139 22.7508 50.1762 22.701 50.2509 22.6512C50.5247 22.4645 50.811 22.2903 51.1097 22.1409C51.1844 22.1036 51.2715 22.0663 51.3462 22.0289C51.3835 22.0165 51.4084 22.004 51.4458 21.9916C51.62 21.9169 51.259 22.0662 51.4208 22.004C51.5827 21.9418 51.7445 21.8796 51.9187 21.8298C52.093 21.78 52.2548 21.7302 52.429 21.6928C52.5037 21.6804 52.5908 21.6555 52.6655 21.6431C52.7402 21.6306 53.0887 21.5808 52.7651 21.6182C53.014 21.5808 53.2505 21.5435 53.4248 21.3444C53.5617 21.195 53.6488 21.0207 53.6862 20.8091C53.7484 20.386 53.4745 19.8757 53.014 19.7885C52.653 19.7138 52.2921 19.6267 51.9312 19.5147C51.7694 19.4649 51.62 19.4027 51.4582 19.3529C51.371 19.3156 51.284 19.2782 51.1968 19.2533C51.4831 19.3653 51.1594 19.2284 51.0848 19.2035C50.4251 18.8924 49.7904 18.519 49.2054 18.0833C49.1805 18.0584 49.1431 18.0335 49.1182 18.0211C48.9938 17.9215 49.168 18.0584 49.1805 18.0709C49.1182 18.0087 49.0311 17.9589 48.9564 17.8966C48.8071 17.7722 48.6701 17.6602 48.5332 17.5357C48.2594 17.2868 47.9856 17.0254 47.7366 16.7391C47.4877 16.4653 47.2512 16.1914 47.0148 15.9052C46.9899 15.8678 46.9649 15.8305 46.9276 15.7932C46.9401 15.8056 47.0646 15.9674 46.965 15.8429C46.9028 15.7683 46.8529 15.6936 46.7907 15.6189C46.6787 15.4696 46.5667 15.3077 46.4671 15.1584C46.0564 14.5485 45.6954 13.9013 45.3718 13.2416C45.2971 13.0798 45.2224 12.9304 45.1478 12.7686C45.1229 12.7313 45.1104 12.6815 45.098 12.6442C45.0358 12.5073 45.1229 12.694 45.1229 12.7064C45.0855 12.5944 45.0357 12.4948 44.9984 12.3952C44.8615 12.0592 44.737 11.7107 44.6125 11.3622C44.0898 9.83122 43.7039 8.25051 43.3928 6.65735C43.2185 5.77364 43.0567 4.87748 42.9198 3.98132C42.8576 3.55814 42.7954 3.1474 42.7331 2.72422C42.7082 2.51263 42.6709 2.31348 42.646 2.10189C42.6335 2.02721 42.5837 1.6787 42.6335 1.98987C42.6211 1.87785 42.6087 1.77828 42.5962 1.66626C42.5589 1.40488 42.5091 1.19328 42.3224 1.00658C42.1606 0.844775 41.8992 0.720315 41.6627 0.732761C41.4262 0.745208 41.1648 0.819882 41.003 1.00658C40.8412 1.20573 40.6919 1.45466 40.7292 1.69114C41.1649 4.9646 41.6627 8.2754 42.6709 11.4244C43.6417 14.424 45.2224 17.2868 47.6993 19.2907C49.1058 20.4233 50.7239 21.2946 52.5037 21.6306C52.5909 21.0207 52.6655 20.4109 52.7527 19.801C51.981 19.9005 51.2715 20.0997 50.5496 20.4109C49.9148 20.6847 49.3298 21.0581 48.7821 21.4937C47.7117 22.3276 46.828 23.4105 46.131 24.568C45.3967 25.7753 44.8615 27.1071 44.5005 28.4763C44.0649 30.0943 43.816 31.7622 43.567 33.4176C43.2932 35.2846 43.0069 37.1516 42.4344 38.9563C43.0443 39.0434 43.6542 39.1181 44.264 39.2052C44.5005 35.521 44.7121 31.6626 43.4675 28.1153C42.4344 25.153 40.4056 22.3774 37.4557 21.1327C35.4767 20.2988 33.311 20.2739 31.1951 20.2988C31.2822 20.9087 31.3569 21.5186 31.444 22.1285C34.5806 21.6928 37.2566 19.6641 39.0862 17.1747C41.115 14.4116 41.9988 10.939 42.422 7.5784C42.6709 5.62428 42.7207 3.65771 42.5838 1.70359C42.5464 1.21817 42.173 0.745199 41.6503 0.770092C41.1773 0.782539 40.6919 1.16839 40.7292 1.69114Z" fill="black"/>
<path d="M6.1648 26.9951C6.37639 27.9286 6.56309 28.8745 6.7249 29.8205C6.81202 30.281 6.88674 30.7415 6.94897 31.2021C6.98631 31.4385 7.02363 31.6626 7.04852 31.8991C7.06097 31.9986 7.07339 32.1107 7.08584 32.2102C7.11073 32.3845 7.08584 32.2227 7.08584 32.1978C7.09828 32.2725 7.11075 32.3471 7.11075 32.4343C7.35969 34.3137 7.50902 36.1932 7.5837 38.085C7.62104 38.8941 7.62109 39.6907 7.5713 40.4997C7.55886 40.6864 7.54636 40.8731 7.52147 41.0598C7.50902 41.1594 7.4966 41.2589 7.48415 41.3585C7.47171 41.4581 7.50905 41.5327 7.48415 41.3336C7.4966 41.3958 7.45924 41.4705 7.45924 41.5327C7.397 41.9186 7.32232 42.292 7.2103 42.6654C7.16052 42.8521 7.0983 43.0263 7.03606 43.213C7.01117 43.2877 6.96142 43.3748 6.94897 43.4495C6.99876 43.2628 6.99872 43.35 6.97383 43.3997C6.94894 43.462 6.92403 43.5118 6.89914 43.574C6.72488 43.9349 6.52575 44.271 6.28927 44.5946C6.22703 44.6693 6.17726 44.7564 6.11503 44.8311C6.12747 44.8062 6.23952 44.6693 6.13994 44.7938C6.11505 44.8311 6.09013 44.8684 6.05279 44.8933C5.92833 45.0551 5.79139 45.2169 5.65448 45.3788C5.3931 45.6775 5.10686 45.9762 4.82059 46.2625C4.50942 46.5736 4.18578 46.8599 3.84972 47.1462C3.67546 47.2955 3.50124 47.4449 3.31454 47.5818C3.2772 47.6191 3.22741 47.6565 3.19007 47.6814C3.16518 47.6938 3.01582 47.8183 3.12784 47.7312C3.2523 47.644 3.07805 47.7685 3.0656 47.781C3.01582 47.8183 2.95361 47.8556 2.90382 47.9054C2.15703 48.4531 1.38534 48.9634 0.601199 49.4488C0.26514 49.6604 0.0410526 50.1085 0.177965 50.5068C0.302431 50.8801 0.663408 51.2162 1.07415 51.1913C1.85828 51.1415 2.64242 51.1042 3.439 51.1415C3.96176 51.1664 4.48452 51.2162 4.99483 51.2785C5.2811 51.3033 5.5549 51.3282 5.84118 51.3531C5.9283 51.3531 6.01544 51.3656 6.10257 51.378C6.12746 51.378 6.13991 51.378 6.1648 51.3905C6.26437 51.4029 6.23947 51.4029 6.09011 51.378C6.115 51.3905 6.17728 51.3905 6.20218 51.3905C6.40132 51.4278 6.60044 51.4652 6.79959 51.5274C6.97384 51.5772 7.14811 51.6394 7.30991 51.7016C7.3597 51.7141 7.39705 51.739 7.44684 51.7514C7.5713 51.8012 7.22276 51.6518 7.40946 51.739C7.50903 51.7888 7.5962 51.8261 7.69577 51.8759C8.04427 52.0501 8.36788 52.2493 8.67904 52.4733C8.71638 52.4982 8.75371 52.5356 8.79105 52.5604C8.92796 52.66 8.75372 52.5356 8.74127 52.5231C8.77861 52.5853 8.9155 52.66 8.96529 52.7098C9.12709 52.8467 9.27648 52.9836 9.42584 53.1205C9.71211 53.3944 9.99839 53.6931 10.2473 53.9918C10.3718 54.1412 10.4962 54.2905 10.6083 54.4399C10.4838 54.2656 10.7452 54.6141 10.6083 54.4399C10.6332 54.4772 10.6581 54.5021 10.683 54.5395C10.7576 54.639 10.8323 54.7386 10.8945 54.8382C11.131 55.1742 11.355 55.5103 11.5666 55.8588C12.0271 56.618 12.4504 57.4146 12.8362 58.2112C13.0478 58.6468 13.2594 59.0949 13.4585 59.5305C13.5083 59.6301 13.5457 59.7297 13.5955 59.8293C13.6203 59.8791 13.6453 59.9413 13.6701 59.9911C13.7324 60.1529 13.6701 60.0035 13.6577 59.9662C13.7697 60.2151 13.8568 60.464 13.9564 60.713C14.7654 62.7542 15.3878 64.8577 15.8234 67.011C15.9105 67.4715 16.4208 67.7329 16.844 67.6831C17.3419 67.6208 17.6033 67.235 17.6531 66.762C18.0887 63.0156 17.1427 59.2941 17.3668 55.5352C17.3792 55.2365 17.4166 54.9378 17.4414 54.6515C17.4539 54.5768 17.4664 54.5021 17.4664 54.4274C17.4788 54.303 17.429 54.6888 17.4539 54.5021C17.4539 54.4648 17.4664 54.4399 17.4664 54.4025C17.4913 54.2407 17.5161 54.0789 17.541 53.9171C17.653 53.2824 17.8024 52.6476 17.9766 52.0377C18.0762 51.7141 18.1758 51.3905 18.2878 51.0669C18.3376 50.9175 18.3874 50.7806 18.4496 50.6437C18.4745 50.569 18.5118 50.4943 18.5367 50.4196C18.599 50.2827 18.5119 50.4819 18.4994 50.4943C18.5243 50.4445 18.5367 50.3947 18.5616 50.345C18.823 49.76 19.1217 49.1874 19.4827 48.6522C19.5698 48.5153 19.6694 48.3784 19.769 48.2415C19.7814 48.2166 19.8934 48.0797 19.7814 48.2166C19.6818 48.3535 19.7939 48.2041 19.8188 48.1792C19.8685 48.117 19.9183 48.0548 19.9805 47.9925C20.1921 47.7436 20.4286 47.5071 20.6776 47.2955C20.7398 47.2333 20.8145 47.1835 20.8767 47.1337C20.9639 47.059 20.7025 47.2582 20.802 47.196C20.8394 47.1711 20.8767 47.1462 20.914 47.1088C21.051 47.0217 21.1755 46.9346 21.3248 46.8475C21.4617 46.7728 21.5986 46.6981 21.7355 46.6359C21.7604 46.6234 21.9098 46.5612 21.748 46.6234C21.5986 46.6856 21.7231 46.6359 21.7604 46.6234C21.8476 46.5861 21.9346 46.5612 22.0218 46.5363C22.3952 46.4118 22.7312 46.0509 22.7063 45.6401C22.6814 45.2169 22.4325 44.8809 22.0218 44.744C20.4286 44.2088 18.7608 43.9847 17.1552 43.4744C16.9685 43.4122 16.7818 43.35 16.5951 43.2753C16.5578 43.2628 16.5204 43.2504 16.483 43.2379C16.4581 43.2255 16.2963 43.1384 16.4333 43.213C16.5702 43.2877 16.4084 43.2006 16.3835 43.1882C16.3337 43.1633 16.2715 43.1384 16.2217 43.1135C15.8607 42.9517 15.5247 42.7525 15.2011 42.5285C15.1513 42.4911 15.1015 42.4538 15.0517 42.4289C14.9397 42.3542 15.0766 42.4662 15.1015 42.4662C15.0642 42.4787 14.9023 42.3044 14.865 42.2671C14.7032 42.1177 14.5414 41.9684 14.392 41.8066C14.2676 41.6697 14.1431 41.5203 14.0186 41.3709C13.9564 41.2963 13.8942 41.2216 13.8319 41.1469C13.9937 41.3336 13.8942 41.2216 13.8568 41.1718C13.8195 41.122 13.7822 41.0598 13.7324 41.01C13.2843 40.4001 12.9109 39.7529 12.5748 39.0808C12.4877 38.9065 12.413 38.7447 12.3383 38.5705C12.301 38.4958 12.2637 38.4211 12.2388 38.334C12.2139 38.2966 12.2014 38.2468 12.1766 38.2095C12.1019 38.0353 12.2512 38.3838 12.1766 38.2219C12.0272 37.861 11.8902 37.4876 11.7533 37.1266C11.1932 35.5833 10.7576 33.9901 10.2722 32.4218C9.60007 30.3059 8.81594 28.2273 7.79532 26.2608C7.57128 25.8251 6.92408 25.6633 6.51334 25.9247C6.06526 26.211 5.94077 26.7337 6.17726 27.2067C6.42619 27.6797 6.6627 28.1651 6.88674 28.6505C6.98631 28.8745 7.09832 29.0986 7.18545 29.3226C7.173 29.2977 7.11075 29.1359 7.17299 29.2977C7.19788 29.3475 7.22279 29.4097 7.24768 29.4595C7.29747 29.584 7.34722 29.7085 7.397 29.8205C7.74551 30.6917 8.05668 31.5755 8.34296 32.4716C8.86572 34.0772 9.31382 35.7077 9.86147 37.3009C10.3842 38.8194 11.019 40.3254 11.9276 41.6572C12.413 42.3667 12.9607 43.0886 13.6328 43.6362C14.3547 44.2461 15.1513 44.6817 16.035 45.0178C17.8024 45.7024 19.7192 45.9015 21.5115 46.4989C21.5115 45.9015 21.5115 45.3041 21.5115 44.6942C18.7982 45.5655 17.2423 48.2664 16.3835 50.8055C15.9354 52.1124 15.6616 53.4815 15.5247 54.8506C15.3504 56.618 15.4749 58.4104 15.6242 60.1778C15.7985 62.3559 16.0101 64.5341 15.7612 66.7123C16.371 66.6251 16.9809 66.5504 17.5908 66.4633C17.1925 64.5092 16.6324 62.58 15.9354 60.713C15.2259 58.8335 14.392 56.979 13.3838 55.2365C12.525 53.7678 11.492 52.3364 10.1726 51.2535C9.45073 50.6686 8.7039 50.1956 7.83263 49.8595C7.06094 49.5484 6.25194 49.4612 5.43046 49.3866C4.83302 49.3368 4.24806 49.2621 3.65062 49.2248C2.76691 49.175 1.89562 49.2123 1.01191 49.2621C1.17372 49.8471 1.32305 50.4196 1.48486 51.0046C2.95356 50.096 4.38493 49.1003 5.66693 47.9179C6.93649 46.7354 8.11895 45.3788 8.75373 43.7482C9.36362 42.18 9.46318 40.425 9.42584 38.7447C9.3885 36.8404 9.2391 34.936 9.01506 33.0566C8.75368 30.8411 8.38029 28.6256 7.89487 26.4475C7.78285 25.9745 7.21034 25.6509 6.74981 25.8002C6.31418 26.0118 6.04033 26.4848 6.1648 26.9951Z" fill="black"/>
<path d="M55.1299 52.0626C55.3041 52.7471 55.4411 53.4317 55.5406 54.1412C55.5282 54.054 55.5157 53.9794 55.5033 53.8922C55.69 55.2738 55.7149 56.6927 55.5282 58.0743C55.5406 57.9872 55.553 57.9125 55.5655 57.8254C55.4161 58.9456 55.1299 60.0409 54.6942 61.0739C54.7316 60.9992 54.7565 60.9246 54.7938 60.8499C54.5822 61.3478 54.3458 61.8332 54.0595 62.2937C53.9226 62.5302 53.7608 62.7667 53.5989 62.9907C53.5243 63.0903 53.4496 63.1899 53.3749 63.2894C53.5741 63.0281 53.4123 63.2396 53.3625 63.3019C53.3127 63.3641 53.2629 63.4263 53.2131 63.4761C52.8646 63.8993 52.4663 64.2852 52.0556 64.6461C51.956 64.7332 51.844 64.8204 51.7444 64.9075C51.6822 64.9573 51.4706 65.1191 51.732 64.9199C51.6697 64.9573 51.6199 65.0071 51.5577 65.0568C51.3212 65.2311 51.0723 65.3929 50.8234 65.5547C50.3504 65.841 49.8774 66.0899 49.3671 66.3015C49.4418 66.2642 49.5164 66.2393 49.5911 66.2019C49.2302 66.3513 48.8692 66.5007 48.5083 66.6625C48.2594 66.7745 48.0229 66.874 47.8362 67.0607C47.413 67.459 47.4876 68.1436 47.9233 68.4797C48.1473 68.6539 48.4461 68.7037 48.7074 68.7784C49.1555 68.9153 49.6036 69.0771 50.0392 69.2638C49.9645 69.2265 49.8899 69.2016 49.8152 69.1642C50.9976 69.6745 52.1427 70.3093 53.1633 71.081C53.1882 71.1059 53.2131 71.1183 53.238 71.1432C53.0264 70.9814 53.1135 71.0561 53.1633 71.081C53.2255 71.1308 53.2753 71.1681 53.3376 71.2179C53.4496 71.305 53.5616 71.4046 53.6612 71.4918C53.8479 71.666 54.0346 71.8402 54.2088 72.0394C54.2959 72.1265 54.3706 72.2261 54.4577 72.3257C54.4951 72.3755 54.5324 72.4252 54.5698 72.475C54.6071 72.5248 54.6694 72.6119 54.4951 72.3879C54.52 72.4252 54.5449 72.4501 54.5698 72.4875C54.7191 72.6866 54.8685 72.8982 54.993 73.1223C55.3166 73.6326 55.5779 74.1802 55.8269 74.7403C55.7895 74.6656 55.7647 74.591 55.7273 74.5163C56.6235 76.6571 57.0342 78.9597 57.4325 81.2374C57.5321 81.8473 57.6441 82.4572 57.7561 83.0671C57.7934 83.2787 58.005 83.5276 58.1793 83.6272C58.366 83.7268 58.5652 83.7641 58.7767 83.7392C59.2373 83.677 59.5733 83.2911 59.5858 82.8182C59.6231 81.7851 59.6604 80.752 59.6978 79.7065C59.7351 78.7108 59.7351 77.7026 59.872 76.7069C59.8596 76.794 59.8472 76.8687 59.8347 76.9558C59.9592 76.097 60.1459 75.2382 60.3699 74.4042C60.4819 73.9935 60.6064 73.5828 60.7308 73.172C60.8429 72.836 60.9425 72.4875 61.0794 72.1514C61.042 72.2261 61.0171 72.3008 60.9798 72.3755C61.154 71.9772 61.3781 71.6038 61.6395 71.2553C61.6768 71.2055 61.7141 71.1557 61.7515 71.0935C61.8386 70.9814 61.5896 71.2926 61.7266 71.1184C61.8137 71.0063 61.9008 70.9067 61.988 70.7947C62.1498 70.5956 62.324 70.4089 62.4983 70.2222C62.8717 69.8363 63.27 69.4629 63.6807 69.102C63.7803 69.0149 63.8798 68.9402 63.9794 68.8531C64.0292 68.8157 64.079 68.7784 64.1288 68.7286C64.1537 68.7037 64.1785 68.6788 64.2159 68.6664C64.1785 68.6913 64.0292 68.8157 64.1413 68.7162C64.3404 68.5668 64.552 68.4174 64.7511 68.2681C65.1619 67.9943 65.585 67.7329 66.0456 67.5462C65.9709 67.5835 65.8962 67.6084 65.8215 67.6457C65.8589 67.6333 65.8962 67.6208 65.9336 67.596C66.1576 67.5088 66.3692 67.3844 66.4937 67.1728C66.5932 66.9861 66.6306 66.7869 66.6057 66.5753C66.5434 66.1148 66.1576 65.7663 65.6846 65.7663C65.473 65.7663 65.2614 65.7539 65.0623 65.729C65.1494 65.7414 65.2241 65.7539 65.3112 65.7663C64.9005 65.7041 64.4897 65.592 64.1039 65.4302C64.1786 65.4676 64.2533 65.4925 64.328 65.5298C64.0915 65.4302 63.8674 65.3182 63.6558 65.1813C63.5438 65.1191 63.4442 65.0444 63.3322 64.9822C63.2824 64.9448 63.2202 64.9075 63.1704 64.8701C63.1455 64.8577 63.1206 64.8328 63.0957 64.8204C63.0832 64.8079 63.0708 64.7955 63.0584 64.7955C62.9712 64.7208 63.1828 64.895 63.1704 64.8826C62.7472 64.5341 62.3489 64.1607 61.9755 63.7499C61.8884 63.6379 61.7888 63.5384 61.7017 63.4263C61.6644 63.3766 61.6146 63.3143 61.5772 63.2645C61.4777 63.1401 61.6768 63.389 61.6395 63.3392C61.6146 63.3019 61.5897 63.277 61.5648 63.2396C61.3781 63.0032 61.2162 62.7542 61.042 62.5053C60.6935 61.9825 60.3824 61.4349 60.0961 60.8748C59.76 60.2276 59.4489 59.5554 59.1626 58.8833C59.1999 58.958 59.2248 59.0327 59.2622 59.1074C58.4282 57.1284 57.781 55.0622 57.2458 52.9712C57.1213 52.4858 57.0093 52.0128 56.8973 51.5274C56.7853 51.0544 56.2127 50.7308 55.7522 50.8801C55.2792 51.0793 55.0054 51.5523 55.1299 52.0626C55.3912 53.1952 55.6775 54.3279 56.0136 55.4481C56.3994 56.755 56.8475 58.0618 57.3578 59.3314C57.9055 60.6632 58.5154 61.9825 59.2871 63.2023C59.9716 64.2976 60.7931 65.368 61.8013 66.177C62.2867 66.5629 62.797 66.9238 63.3695 67.1728C64.0043 67.4466 64.6267 67.6208 65.3237 67.6831C65.4606 67.6955 65.5975 67.6955 65.7219 67.6955C65.6348 67.0857 65.5601 66.4758 65.473 65.8659C64.4524 66.2642 63.5687 66.8865 62.7223 67.5711C61.8759 68.2556 61.0794 69.0273 60.4073 69.8861C60.0712 70.3093 59.76 70.7325 59.5111 71.2179C59.2248 71.7905 59.0381 72.4128 58.8514 73.0227C58.4034 74.5038 58.0424 76.0099 57.9303 77.5532C57.8681 78.4245 57.8557 79.3082 57.8308 80.1795C57.8059 81.0756 57.7685 81.9593 57.7436 82.8555C58.3535 82.7684 58.9634 82.6937 59.5733 82.6066C59.1252 80.1297 58.7892 77.6155 57.9926 75.2257C57.5818 74.0184 57.0715 72.8111 56.3247 71.7656C55.9513 71.2304 55.5282 70.7325 55.0552 70.2844C54.5076 69.7866 53.8977 69.3385 53.2753 68.9402C52.5908 68.4921 51.8689 68.0938 51.1221 67.7578C50.6989 67.5586 50.2633 67.3844 49.8152 67.2226C49.4542 67.0981 49.0933 66.9985 48.7323 66.8865C48.807 66.9238 48.8817 66.9487 48.9564 66.9861C49.0684 67.0981 49.1679 67.1977 49.2799 67.3097C49.3173 67.3844 49.3422 67.459 49.3796 67.5337C49.392 67.6208 49.4044 67.6955 49.4169 67.7827C49.4044 67.8698 49.392 67.9445 49.3796 68.0316C49.3422 68.1063 49.3173 68.181 49.2799 68.2556C49.2053 68.3677 49.1057 68.5046 48.9937 68.5543C49.0186 68.5419 49.031 68.5295 49.0559 68.517C49.1182 68.4797 49.1804 68.4548 49.2426 68.4174C49.4169 68.3303 49.6036 68.2556 49.7903 68.1809C49.7156 68.2183 49.6409 68.2432 49.5663 68.2805C50.0766 68.0689 50.5993 67.8573 51.0972 67.596C51.6697 67.2972 52.2049 66.9487 52.7152 66.5629C53.7981 65.729 54.7316 64.7457 55.4659 63.6006C56.8849 61.4224 57.5072 58.7838 57.5196 56.2073C57.5196 54.6639 57.308 53.1081 56.9346 51.6145C56.8101 51.1415 56.2625 50.8055 55.7896 50.9673C55.2917 51.0793 54.9929 51.5523 55.1299 52.0626Z" fill="black"/>
<path d="M67.7385 19.0417C67.8381 19.5022 67.9252 19.9628 67.9999 20.4233C68.0373 20.6473 68.0746 20.8838 68.1119 21.1203C68.1244 21.195 68.1866 21.5435 68.1368 21.2697C68.1617 21.4066 68.1742 21.5435 68.1866 21.6679C68.2986 22.6139 68.3858 23.5723 68.4356 24.5307C68.5351 26.4599 68.5226 28.4016 68.3857 30.3183C68.3484 30.7913 68.3111 31.2643 68.2737 31.7497C68.2488 31.9613 68.2364 32.1853 68.2115 32.3969C68.199 32.4965 68.1866 32.5961 68.1742 32.7081C68.1742 32.7579 68.1617 32.8077 68.1617 32.845C68.1493 32.9197 68.1617 32.8823 68.1742 32.733C68.1742 32.7703 68.1617 32.8077 68.1617 32.845C68.0497 33.6416 67.8754 34.4257 67.6638 35.1974C67.5518 35.5833 67.4274 35.9691 67.2904 36.3425C67.2158 36.5292 67.1535 36.7159 67.0788 36.9026C67.0664 36.9524 67.0415 36.9897 67.0291 37.0395C67.1037 36.803 67.0664 36.9399 67.0415 37.0022C66.9917 37.1017 66.9544 37.2138 66.9046 37.3133C66.5685 38.0477 66.1827 38.7447 65.7222 39.4168C65.5977 39.6035 65.4608 39.7902 65.3239 39.9645C65.2866 40.0143 65.2119 40.0765 65.3612 39.9147C65.3239 39.9645 65.2741 40.0143 65.2368 40.064C65.1621 40.1512 65.0998 40.2383 65.0251 40.3254C64.7389 40.6615 64.4402 40.9726 64.1166 41.2838C63.9548 41.4332 63.7929 41.5825 63.6187 41.7319C63.5316 41.8066 63.432 41.8688 63.3573 41.9435C63.5191 41.7817 63.4569 41.8688 63.3947 41.9186C63.3449 41.9559 63.2951 41.9933 63.2328 42.0306C62.8719 42.292 62.4861 42.5409 62.0878 42.7525C61.7393 42.9392 61.5401 43.4246 61.6645 43.8105C61.7143 43.9598 61.7891 44.1092 61.9011 44.2212C62.038 44.3706 62.3491 44.5199 62.5607 44.495C63.3947 44.3955 64.2286 44.3457 65.0625 44.3706C65.4732 44.383 65.8715 44.4079 66.2823 44.4452C66.3818 44.4577 66.4938 44.4701 66.5934 44.4826C66.6681 44.495 67.0415 44.5448 66.7179 44.495C66.9295 44.5324 67.1411 44.5573 67.3527 44.5946C68.1617 44.7315 68.9707 44.9307 69.7548 45.1796C70.1531 45.3041 70.5514 45.441 70.9373 45.6028C71.0244 45.6401 71.0991 45.665 71.1862 45.7024C71.236 45.7272 71.2858 45.7397 71.3356 45.7646C71.0742 45.665 71.2484 45.7272 71.3107 45.7521C71.5098 45.8393 71.6965 45.9264 71.8957 46.0135C72.6549 46.3745 73.3893 46.7728 74.0863 47.2208C74.4348 47.4449 74.7709 47.6689 75.0945 47.9179C75.1816 47.9801 75.2687 48.0423 75.3558 48.1046C75.3932 48.1419 75.443 48.1668 75.4803 48.2041C75.2811 48.0548 75.3683 48.117 75.4181 48.1543C75.6048 48.3037 75.779 48.4406 75.9533 48.59C76.5756 49.1127 77.173 49.6853 77.7207 50.2827C78.007 50.5939 78.2808 50.9175 78.5546 51.2535C78.6044 51.3282 78.6666 51.3905 78.7164 51.4651C78.5173 51.2287 78.7538 51.5149 78.7911 51.5772C78.9156 51.7514 79.04 51.9257 79.1645 52.0999C79.6873 52.8592 80.1603 53.6557 80.5585 54.4772C80.6581 54.6888 80.7577 54.9004 80.8448 55.0995C80.9195 55.2738 80.7577 54.888 80.8323 55.0747C80.8572 55.1369 80.8821 55.2116 80.907 55.2738C80.9444 55.3734 80.9817 55.4729 81.019 55.5725C81.1933 56.0206 81.3427 56.4811 81.4671 56.9417C81.604 57.4146 82.1393 57.7507 82.6122 57.5889C82.8363 57.5142 83.0603 57.3773 83.1723 57.1657C83.2968 56.9292 83.3092 56.7052 83.2719 56.4438C83.2719 56.4313 83.2345 56.1948 83.2594 56.3442C83.2843 56.4936 83.247 56.2695 83.247 56.2571C83.2346 56.17 83.2221 56.0828 83.2097 55.9957C83.1848 55.7966 83.1599 55.5974 83.1474 55.3983C83.1225 55.0871 83.0976 54.7759 83.0852 54.4648C83.0727 53.9794 83.0852 53.4815 83.0727 52.9961C83.0727 52.3862 83.0354 51.7887 82.9732 51.1789C82.9234 50.7183 82.8612 50.2578 82.7989 49.7973C82.7616 49.5235 82.7243 49.2496 82.6869 48.9634C82.6745 48.9136 82.6745 48.8638 82.662 48.814C82.6247 48.5775 82.6869 48.9634 82.662 48.814C82.6496 48.6771 82.6247 48.5526 82.6122 48.4157C82.5002 47.532 82.4007 46.6359 82.3758 45.7397C82.3633 45.2792 82.3633 44.8311 82.4006 44.3706C82.4131 44.159 82.4255 43.9349 82.4629 43.7233C82.4131 43.9847 82.4878 43.5989 82.4878 43.5491C82.5127 43.4246 82.5251 43.3126 82.55 43.1881C82.6247 42.8023 82.7367 42.4289 82.8612 42.0679C82.911 41.9061 82.9732 41.7443 83.0354 41.5825C83.0603 41.5078 83.0852 41.4332 83.1226 41.3709C83.135 41.3212 83.1599 41.2838 83.1723 41.234C83.2595 41.0349 83.135 41.3336 83.1723 41.2465C83.4711 40.5868 83.8071 39.952 84.2054 39.3546C84.3174 39.1928 84.4792 39.0185 84.5788 38.8443C84.5663 38.8567 84.4419 39.0185 84.5415 38.8941C84.5788 38.8443 84.6161 38.8069 84.6535 38.7572C84.7157 38.6825 84.7779 38.6078 84.8402 38.5331C85.1015 38.2344 85.3754 37.9481 85.6741 37.6743C85.8235 37.5374 85.9853 37.4005 86.1471 37.2636C86.2715 37.164 86.1097 37.3009 86.0973 37.3009C86.1471 37.276 86.1844 37.2262 86.2342 37.2013C86.3213 37.1391 86.4085 37.0769 86.4831 37.0146C86.8192 36.7781 87.1677 36.579 87.5411 36.3923C87.8896 36.218 88.0887 35.7077 87.9643 35.3343C87.8274 34.9236 87.4913 34.6747 87.0681 34.6498C86.6325 34.6249 86.1968 34.5875 85.7612 34.5377C85.6616 34.5253 85.5621 34.5128 85.4625 34.5004C85.4127 34.5004 85.3629 34.4755 85.3131 34.4755C85.562 34.4631 85.4003 34.488 85.3256 34.4755C85.1015 34.4382 84.8775 34.4133 84.6659 34.3759C83.8196 34.2266 82.9856 34.0399 82.1766 33.8034C81.7659 33.6789 81.3676 33.5545 80.9693 33.4051C80.7826 33.3304 80.5958 33.2682 80.3967 33.1935C80.3718 33.1811 80.1105 33.0815 80.1105 33.0815C80.1478 33.0939 80.1851 33.1188 80.2225 33.1313C80.1851 33.1188 80.1478 33.0939 80.1105 33.0815C80.0607 33.0566 79.9985 33.0317 79.9487 33.0068C79.1645 32.6583 78.4177 32.26 77.6958 31.7995C77.3349 31.563 76.9739 31.3265 76.6379 31.0651C76.6005 31.0402 76.5756 31.0154 76.5383 30.9905C76.5756 31.0278 76.7498 31.1398 76.5383 30.9905C76.4636 30.9282 76.3765 30.866 76.3018 30.8038C76.1275 30.6668 75.9657 30.5175 75.8039 30.3681C75.4928 30.0819 75.1816 29.7831 74.8953 29.472C74.5966 29.1484 74.3352 28.7998 74.0489 28.4762C74.2232 28.6754 74.0116 28.4265 73.9743 28.3642C73.9121 28.2771 73.8498 28.2024 73.7876 28.1153C73.6507 27.9286 73.5262 27.7419 73.4017 27.5552C73.1528 27.1818 72.9288 26.7959 72.7047 26.4101C72.2691 25.6384 71.8832 24.8418 71.5223 24.0204C71.5098 23.983 71.485 23.9457 71.4725 23.9083C71.4601 23.871 71.4352 23.8336 71.4227 23.7963C71.4725 23.9208 71.4849 23.9332 71.4476 23.8461C71.3978 23.7341 71.3481 23.6096 71.2983 23.4976C71.2112 23.2735 71.124 23.0495 71.0369 22.8255C70.8626 22.365 70.6884 21.892 70.5266 21.4315C70.1905 20.4731 69.8793 19.5147 69.5681 18.5563C69.4188 18.0958 68.9085 17.7473 68.4231 17.9091C67.9252 18.046 67.5767 18.5438 67.7385 19.0417C68.8587 22.5392 70.0287 26.1487 72.2069 29.1484C73.3146 30.6793 74.6464 31.9986 76.2147 33.0815C77.6958 34.1021 79.3512 34.8738 81.0564 35.4339C82.9981 36.0687 85.0269 36.4172 87.0681 36.5292C86.9063 35.9442 86.757 35.3717 86.5952 34.7867C83.7698 36.1931 81.8032 38.9936 80.9444 41.9933C80.4216 43.8229 80.4465 45.7273 80.6581 47.5942C80.7203 48.117 80.7826 48.6273 80.8573 49.1501C80.8697 49.2745 80.8946 49.3865 80.907 49.511C80.9195 49.5608 80.9195 49.6106 80.9319 49.6604C80.9693 49.8969 80.9071 49.511 80.9319 49.6728C80.9693 49.9093 80.9942 50.1582 81.0315 50.3947C81.1186 51.1291 81.2057 51.8634 81.2182 52.5978C81.2306 53.1579 81.2182 53.718 81.2307 54.2781C81.2555 55.1618 81.3551 56.0455 81.4796 56.9292C82.077 56.7674 82.6745 56.5931 83.2843 56.4313C82.326 53.0459 80.3345 49.984 77.7207 47.6565C75.1069 45.3165 71.8708 43.6113 68.4356 42.9019C66.5188 42.5036 64.5273 42.3791 62.5856 42.628C62.7475 43.213 62.8968 43.7856 63.0586 44.3706C66.1205 42.6903 68.1866 39.6658 69.2694 36.4047C69.8295 34.712 70.0785 32.957 70.2154 31.1772C70.3772 29.2106 70.427 27.244 70.3523 25.2775C70.2652 23.0246 70.0287 20.7718 69.5681 18.5687C69.4686 18.0958 68.8836 17.7722 68.4231 17.9215C67.8879 18.0584 67.639 18.5314 67.7385 19.0417Z" fill="black"/>
</svg>
