<svg width="24" height="22" viewBox="0 0 24 22" fill="none" xmlns="http://www.w3.org/2000/svg">
<g clip-path="url(#clip0_60_553)">
<path d="M20 16.0417C20.3852 16.0419 20.7556 16.1779 21.0344 16.4216C21.3132 16.6652 21.479 16.9979 21.4975 17.3506C21.516 17.7033 21.3858 18.049 21.1338 18.3161C20.8818 18.5832 20.5274 18.7512 20.144 18.7853L20 18.7917H4C3.61478 18.7915 3.24441 18.6555 2.96561 18.4118C2.68682 18.1681 2.52099 17.8355 2.50248 17.4828C2.48396 17.13 2.61419 16.7843 2.86618 16.5172C3.11816 16.2502 3.47258 16.0822 3.856 16.0481L4 16.0417H20ZM20 9.62501C20.3978 9.62501 20.7794 9.76988 21.0607 10.0277C21.342 10.2856 21.5 10.6353 21.5 11C21.5 11.3647 21.342 11.7144 21.0607 11.9723C20.7794 12.2301 20.3978 12.375 20 12.375H4C3.60218 12.375 3.22064 12.2301 2.93934 11.9723C2.65804 11.7144 2.5 11.3647 2.5 11C2.5 10.6353 2.65804 10.2856 2.93934 10.0277C3.22064 9.76988 3.60218 9.62501 4 9.62501H20ZM20 3.20834C20.3978 3.20834 20.7794 3.35321 21.0607 3.61107C21.342 3.86893 21.5 4.21867 21.5 4.58334C21.5 4.94802 21.342 5.29775 21.0607 5.55562C20.7794 5.81348 20.3978 5.95834 20 5.95834H4C3.60218 5.95834 3.22064 5.81348 2.93934 5.55562C2.65804 5.29775 2.5 4.94802 2.5 4.58334C2.5 4.21867 2.65804 3.86893 2.93934 3.61107C3.22064 3.35321 3.60218 3.20834 4 3.20834H20Z" fill="black"/>
</g>
<defs>
<clipPath id="clip0_60_553">
<rect width="24" height="22" fill="white"/>
</clipPath>
</defs>
</svg>
