<svg width="30" height="30" viewBox="0 0 30 30" fill="none" xmlns="http://www.w3.org/2000/svg">
<path d="M23.873 13.2978C19.0379 10.4264 11.0624 10.1623 6.44663 11.5632C5.70538 11.7882 4.92152 11.3696 4.69699 10.6286C4.47232 9.88686 4.89031 9.10357 5.63212 8.87824C10.9307 7.26992 19.7388 7.58052 25.3051 10.8847C25.9718 11.2806 26.1905 12.1416 25.7953 12.8072C25.3999 13.4739 24.5381 13.6936 23.873 13.2978ZM23.7147 17.5508C23.3754 18.1013 22.6557 18.274 22.106 17.9359C18.0749 15.4581 11.9282 14.7403 7.15911 16.1879C6.54067 16.3748 5.88744 16.0261 5.69958 15.4088C5.51324 14.7904 5.86211 14.1383 6.47944 13.9503C11.9274 12.2971 18.7001 13.0978 23.3299 15.943C23.8797 16.2816 24.0527 17.0017 23.7147 17.5508ZM21.8793 21.6353C21.6097 22.0774 21.0342 22.2159 20.5937 21.9464C17.0713 19.7936 12.6377 19.3075 7.41638 20.5C6.91324 20.6154 6.41177 20.3001 6.29703 19.797C6.18178 19.294 6.49589 18.7925 7.00014 18.6777C12.714 17.3715 17.6154 17.9336 21.569 20.3496C22.0098 20.6188 22.1487 21.1947 21.8793 21.6353ZM15.0001 0C6.71586 0 0 6.71573 0 14.9998C0 23.2848 6.71586 30 15.0001 30C23.2845 30 30 23.2848 30 14.9998C30 6.71573 23.2845 0 15.0001 0Z" fill="black"/>
</svg>
