<svg width="154" height="56" viewBox="0 0 154 56" fill="none" xmlns="http://www.w3.org/2000/svg">
<path fill-rule="evenodd" clip-rule="evenodd" d="M95.7286 45.9317C86.753 52.4971 73.7434 56 62.5424 56C46.8368 56 32.6977 50.2352 22.001 40.6473C21.1605 39.8933 21.9136 38.8658 22.9221 39.453C34.4659 46.1185 48.7395 50.1285 63.4837 50.1285C73.4274 50.1285 84.3663 48.0868 94.4243 43.85C95.9438 43.2094 97.2145 44.8374 95.7286 45.9317Z" fill="white"/>
<path fill-rule="evenodd" clip-rule="evenodd" d="M99.0308 41.259C97.8601 39.8301 91.2633 40.5839 88.3023 40.9182C87.4002 41.0231 87.2625 40.2759 88.075 39.7384C93.3291 36.2185 101.95 37.2345 102.956 38.4143C103.961 39.6007 102.694 47.8268 97.7568 51.753C96.9994 52.356 96.2763 52.0348 96.6137 51.2352C97.7224 48.6002 100.208 42.6945 99.0308 41.259Z" fill="white"/>
<path fill-rule="evenodd" clip-rule="evenodd" d="M88.4239 15.1373V11.6399C88.4239 11.1105 88.8233 10.7554 89.3027 10.7554H104.862C105.361 10.7554 105.76 11.1172 105.76 11.6399V14.6348C105.754 15.1373 105.334 15.794 104.589 16.8325L96.5262 28.4171C99.5221 28.3434 102.685 28.7923 105.401 30.3333C106.013 30.6817 106.18 31.1909 106.226 31.6934V35.4254C106.226 35.9346 105.667 36.5309 105.081 36.2227C100.294 33.6968 93.9364 33.4221 88.6436 36.2495C88.1043 36.5443 87.5384 35.9547 87.5384 35.4455V31.9011C87.5384 31.3316 87.545 30.3601 88.1109 29.4958L97.4516 16.0151H89.3226C88.8233 16.0151 88.4239 15.66 88.4239 15.1373Z" fill="white"/>
<path fill-rule="evenodd" clip-rule="evenodd" d="M32.0643 36.3285H27.3913C26.9444 36.2963 26.5895 35.9685 26.5566 35.5506V12.0926C26.5566 11.6233 26.9576 11.2504 27.4571 11.2504H31.8146C32.2681 11.2697 32.6296 11.6104 32.6624 12.0347V15.1012H32.7479C33.8849 12.1376 36.0209 10.7554 38.8996 10.7554C41.8244 10.7554 43.6515 12.1376 44.966 15.1012C46.0964 12.1376 48.6663 10.7554 51.4201 10.7554C53.3787 10.7554 55.5213 11.5462 56.8292 13.3205C58.308 15.294 58.0057 18.1612 58.0057 20.6748L57.9991 35.4799C57.9991 35.9492 57.5982 36.3285 57.0987 36.3285H52.4323C51.9656 36.2963 51.591 35.9299 51.591 35.4799V23.0469C51.591 22.0569 51.683 19.5884 51.4595 18.6498C51.1112 17.0748 50.0662 16.6312 48.7123 16.6312C47.5818 16.6312 46.3988 17.3705 45.919 18.5533C45.4392 19.7362 45.4852 21.7162 45.4852 23.0469V35.4799C45.4852 35.9492 45.0843 36.3285 44.5848 36.3285H39.9184C39.4452 36.2963 39.0771 35.9299 39.0771 35.4799L39.0705 23.0469C39.0705 20.4305 39.5109 16.5798 36.1918 16.5798C32.8333 16.5798 32.9648 20.3341 32.9648 23.0469V35.4799C32.9648 35.9492 32.5638 36.3285 32.0643 36.3285Z" fill="white"/>
<path fill-rule="evenodd" clip-rule="evenodd" d="M119.909 10.7554C126.986 10.7554 130.816 16.6904 130.816 24.2368C130.816 31.5278 126.583 37.312 119.909 37.312C112.96 37.312 109.177 31.3771 109.177 23.9813C109.177 16.5397 113.007 10.7554 119.909 10.7554ZM119.95 15.6357C116.435 15.6357 116.213 20.3129 116.213 23.228C116.213 26.1496 116.166 32.3859 119.909 32.3859C123.605 32.3859 123.78 27.355 123.78 24.2892C123.78 22.2716 123.692 19.8609 123.069 17.9481C122.532 16.2842 121.465 15.6357 119.95 15.6357Z" fill="white"/>
<path fill-rule="evenodd" clip-rule="evenodd" d="M139.403 36.3285H134.635C134.157 36.2963 133.773 35.9299 133.773 35.4799L133.767 12.0154C133.807 11.5847 134.204 11.2504 134.689 11.2504H139.127C139.545 11.2697 139.888 11.5397 139.983 11.9062V15.4933H140.07C141.41 12.2855 143.289 10.7554 146.596 10.7554C148.744 10.7554 150.839 11.4947 152.185 13.5197C153.438 15.3969 153.438 18.5533 153.438 20.8226V35.5892C153.384 36.0006 152.987 36.3285 152.515 36.3285H147.714C147.276 36.2963 146.912 35.9877 146.865 35.5892V22.8477C146.865 20.2826 147.175 16.5283 143.868 16.5283C142.703 16.5283 141.632 17.2741 141.1 18.4055C140.427 19.8391 140.339 21.2662 140.339 22.8477V35.4799C140.333 35.9492 139.915 36.3285 139.403 36.3285Z" fill="white"/>
<path fill-rule="evenodd" clip-rule="evenodd" d="M75.9122 25.5926C75.9122 27.4032 75.9588 28.913 75.0268 30.5209C74.2746 31.8282 73.0763 32.6321 71.7515 32.6321C69.9341 32.6321 68.8689 31.2726 68.8689 29.266C68.8689 25.305 72.4838 24.586 75.9122 24.586V25.5926ZM80.6854 36.9199C80.3725 37.1944 79.9199 37.214 79.567 37.031C77.9959 35.7499 77.7097 35.1551 76.8509 33.9328C74.2546 36.5342 72.4105 37.312 69.0486 37.312C65.061 37.312 61.9654 34.9002 61.9654 30.0699C61.9654 26.2985 64.0424 23.7298 67.0116 22.4749C69.5812 21.3637 73.1695 21.1676 75.9122 20.8604V20.2591C75.9122 19.1545 75.9988 17.8472 75.333 16.8929C74.7605 16.0367 73.6554 15.6837 72.6768 15.6837C70.8727 15.6837 69.2683 16.5923 68.8756 18.4747C68.7957 18.893 68.4828 19.3048 68.0501 19.3244L63.4633 18.8407C63.0771 18.7558 62.6444 18.4486 62.7576 17.8668C63.8094 12.4026 68.8423 10.7554 73.3425 10.7554C75.6459 10.7554 78.655 11.3568 80.4724 13.0693C82.7758 15.1804 82.5561 17.9976 82.5561 21.063V28.3051C82.5561 30.4817 83.4748 31.436 84.3402 32.6125C84.6398 33.0308 84.7064 33.5341 84.3202 33.8478C83.355 34.6387 81.6374 36.1094 80.6921 36.9329L80.6854 36.9199Z" fill="white"/>
<path fill-rule="evenodd" clip-rule="evenodd" d="M13.9432 25.5926C13.9432 27.4032 13.9898 28.913 13.058 30.5209C12.3059 31.8282 11.1146 32.6321 9.78352 32.6321C7.96658 32.6321 6.90837 31.2726 6.90837 29.266C6.90837 25.305 10.5223 24.586 13.9432 24.586V25.5926ZM18.7151 36.9199C18.4023 37.1944 17.9498 37.214 17.597 37.031C16.0263 35.7499 15.7468 35.1551 14.8816 33.9328C12.286 36.5342 10.4491 37.312 7.08141 37.312C3.10144 37.312 0 34.9002 0 30.0699C0 26.2985 2.08316 23.7298 5.04484 22.4749C7.61384 21.3637 11.2011 21.1676 13.9432 20.8604V20.2591C13.9432 19.1545 14.0297 17.8472 13.3708 16.8929C12.7918 16.0367 11.687 15.6837 10.7153 15.6837C8.91166 15.6837 7.30104 16.5923 6.90837 18.4747C6.8285 18.893 6.51569 19.3048 6.08974 19.3244L1.49748 18.8407C1.11146 18.7558 0.685511 18.4486 0.791998 17.8668C1.85022 12.4026 6.87509 10.7554 11.3742 10.7554C13.677 10.7554 16.6852 11.3568 18.5022 13.0693C20.805 15.1804 20.5853 17.9976 20.5853 21.063V28.3051C20.5853 30.4817 21.5038 31.436 22.369 32.6125C22.6751 33.0308 22.7417 33.5341 22.3557 33.8478C21.3906 34.6387 19.6735 36.1094 18.7285 36.9329L18.7151 36.9199Z" fill="white"/>
</svg>
