<svg width="163" height="56" viewBox="0 0 163 56" fill="none" xmlns="http://www.w3.org/2000/svg">
<path d="M27.5778 7.15606C27.5778 7.15606 27.0678 7.30228 26.2299 7.55816C26.0842 7.08295 25.8656 6.53463 25.5742 5.94976C24.627 4.12203 23.2063 3.13505 21.5306 3.13505C21.4213 3.13505 21.312 3.13505 21.1663 3.17161C21.1299 3.0985 21.057 3.06194 21.0206 2.98883C20.292 2.18463 19.3448 1.81908 18.2155 1.85564C16.0298 1.92875 13.844 3.5006 12.0954 6.31531C10.8568 8.28926 9.90968 10.775 9.65468 12.7124C7.14107 13.48 5.39247 14.0283 5.35604 14.0649C4.08102 14.467 4.04459 14.5035 3.89888 15.7099C3.78959 16.6237 0.43811 42.3582 0.43811 42.3582L27.9785 47.1469V7.11951C27.76 7.11951 27.6507 7.15606 27.5778 7.15606ZM21.2027 9.13001C19.7455 9.56867 18.1427 10.0804 16.5762 10.5556C17.0134 8.83758 17.8877 7.11951 18.9077 5.98631C19.3084 5.58421 19.8548 5.109 20.4741 4.81657C21.0934 6.13253 21.2391 7.92371 21.2027 9.13001ZM18.2155 3.35438C18.7255 3.35438 19.1627 3.46404 19.527 3.68337C18.9441 3.97581 18.3612 4.45102 17.8148 4.99934C16.4305 6.49808 15.3741 8.83758 14.9369 11.0674C13.6255 11.4695 12.314 11.8716 11.1118 12.2372C11.9133 8.72791 14.864 3.42749 18.2155 3.35438ZM13.9897 23.4594C14.1355 25.7989 20.292 26.3107 20.6563 31.8305C20.9113 36.1805 18.3612 39.1414 14.6819 39.3607C10.2375 39.6531 7.79679 37.0212 7.79679 37.0212L8.74395 33.0002C8.74395 33.0002 11.1847 34.8645 13.1519 34.7183C14.4269 34.6452 14.9005 33.5851 14.864 32.854C14.6819 29.7834 9.65468 29.9662 9.32682 24.9216C9.03538 20.6813 11.804 16.4044 17.9241 16.0023C20.292 15.8561 21.4941 16.4409 21.4941 16.4409L20.1098 21.7048C20.1098 21.7048 18.5434 20.9737 16.6855 21.1199C13.9897 21.3027 13.9533 23.0208 13.9897 23.4594ZM22.6599 8.69136C22.6599 7.59472 22.5142 6.02287 22.0042 4.7069C23.6799 5.03589 24.4813 6.90018 24.8456 8.03337C24.1899 8.21615 23.4613 8.43548 22.6599 8.69136Z" fill="white"/>
<path d="M28.8164 47.0737L40.2552 44.2225C40.2552 44.2225 35.3372 10.8481 35.3008 10.6288C35.2644 10.4094 35.0822 10.2632 34.9001 10.2632C34.7179 10.2632 31.5122 10.1901 31.5122 10.1901C31.5122 10.1901 29.545 8.28926 28.8164 7.55817V47.0737Z" fill="white"/>
<path d="M56.2731 25.5626C54.8888 24.795 54.1602 24.1735 54.1602 23.2962C54.1602 22.163 55.1438 21.4685 56.7103 21.4685C58.5317 21.4685 60.1346 22.2361 60.1346 22.2361L61.4096 18.3248C61.4096 18.3248 60.2439 17.4109 56.7831 17.4109C51.9745 17.4109 48.623 20.1891 48.623 24.0639C48.623 26.2572 50.1895 27.9387 52.2659 29.145C53.9417 30.0954 54.5245 30.7899 54.5245 31.7769C54.5245 32.837 53.6867 33.6778 52.1202 33.6778C49.7888 33.6778 47.603 32.4715 47.603 32.4715L46.2551 36.3828C46.2551 36.3828 48.2952 37.7353 51.6831 37.7353C56.6374 37.7353 60.1711 35.2862 60.1711 30.8996C60.2439 28.487 58.4224 26.8055 56.2731 25.5626Z" fill="white"/>
<path d="M76.0177 17.3378C73.577 17.3378 71.6826 18.5076 70.1891 20.2622L70.1162 20.2256L72.2291 9.11302H66.6919L61.3368 37.3698H66.8376L68.659 27.7193C69.3876 24.0639 71.2455 21.834 72.9941 21.834C74.2327 21.834 74.7063 22.6748 74.7063 23.8811C74.7063 24.6487 74.6334 25.5626 74.4513 26.3303L72.3748 37.4063H77.8756L80.0249 26.0013C80.2799 24.795 80.4256 23.3693 80.4256 22.3824C80.4985 19.2021 78.8956 17.3378 76.0177 17.3378Z" fill="white"/>
<path d="M92.9573 17.3378C86.3272 17.3378 81.9192 23.3328 81.9192 30.0223C81.9192 34.2992 84.5421 37.7719 89.4965 37.7719C96.0173 37.7719 100.389 31.9231 100.389 25.0874C100.425 21.1029 98.1302 17.3378 92.9573 17.3378ZM90.2615 33.495C88.3672 33.495 87.6022 31.8866 87.6022 29.8761C87.6022 26.6958 89.2415 21.5416 92.2287 21.5416C94.1959 21.5416 94.8151 23.2231 94.8151 24.8681C94.8151 28.3042 93.1758 33.495 90.2615 33.495Z" fill="white"/>
<path d="M114.523 17.3378C110.808 17.3378 108.695 20.6277 108.695 20.6277H108.622L108.95 17.6668H104.068C103.813 19.6773 103.376 22.7113 102.939 25.0143L99.1138 45.1925H104.615L106.145 37.0042H106.254C106.254 37.0042 107.383 37.7353 109.496 37.7353C115.98 37.7353 120.206 31.0824 120.206 24.3563C120.206 20.6643 118.567 17.3378 114.523 17.3378ZM109.278 33.6046C107.857 33.6046 107.019 32.8004 107.019 32.8004L107.93 27.6462C108.585 24.2101 110.37 21.9071 112.265 21.9071C113.94 21.9071 114.45 23.479 114.45 24.9412C114.45 28.487 112.338 33.6046 109.278 33.6046Z" fill="white"/>
<path d="M128.075 9.40545C126.326 9.40545 124.906 10.7945 124.906 12.6223C124.906 14.2672 125.926 15.4004 127.492 15.4004H127.565C129.277 15.4004 130.771 14.2307 130.807 12.1836C130.844 10.5386 129.751 9.40545 128.075 9.40545Z" fill="white"/>
<path d="M120.352 37.3698H125.889L129.641 17.7765H124.068L120.352 37.3698Z" fill="white"/>
<path d="M143.63 17.7399H139.805L139.987 16.826C140.315 14.9252 141.408 13.2437 143.266 13.2437C144.249 13.2437 145.014 13.5361 145.014 13.5361L146.107 9.22268C146.107 9.22268 145.16 8.74747 143.12 8.74747C141.153 8.74747 139.222 9.29579 137.729 10.5752C135.834 12.1836 134.96 14.4865 134.523 16.826L134.377 17.7399H131.827L131.026 21.9071H133.576L130.661 37.3698H136.162L139.077 21.9071H142.865L143.63 17.7399Z" fill="white"/>
<path d="M156.89 17.7765C156.89 17.7765 153.43 26.4765 151.9 31.2286H151.827C151.717 29.6933 150.479 17.7765 150.479 17.7765H144.687L148.002 35.7614C148.075 36.1635 148.038 36.4193 147.892 36.6752C147.237 37.9181 146.18 39.1244 144.905 40.0017C143.885 40.7693 142.719 41.2446 141.809 41.5736L143.339 46.2525C144.468 45.9967 146.763 45.0828 148.73 43.2551C151.244 40.879 153.575 37.2601 155.943 32.2887L162.683 17.7765H156.89Z" fill="white"/>
</svg>
