<svg width="190" height="56" viewBox="0 0 190 56" fill="none" xmlns="http://www.w3.org/2000/svg">
<g clip-path="url(#clip0_14_283)">
<path fill-rule="evenodd" clip-rule="evenodd" d="M105.247 30.2634C105.247 30.6435 105.218 31.0235 105.101 31.3451C104.842 32.1049 104.349 32.7631 103.692 33.2253C103.036 33.6874 102.25 33.9298 101.447 33.9177C99.9559 33.9177 98.7719 33.0699 98.7719 31.2574C98.7719 28.5094 101.798 27.7493 105.247 27.7639V30.2634ZM110.656 25.469C110.656 20.9377 108.712 16.9326 102.163 16.9326C98.8011 16.9326 96.1262 17.8681 94.6645 18.7159L95.7315 22.3702C97.3877 21.388 99.273 20.8587 101.198 20.8354C104.531 20.8354 105.072 22.721 105.072 23.9196V24.2119C97.8218 24.2119 93.232 26.7115 93.232 31.8275C93.232 34.9555 95.5707 37.8789 99.6343 37.8789C102.119 37.8789 104.209 36.885 105.467 35.2917H105.583C105.583 35.2917 106.417 38.756 110.992 37.4258C110.743 35.9787 110.656 34.4439 110.656 32.6022V25.469ZM-0.317383 10.7496L5.17864 33.3038C6.05567 36.9873 7.64893 38.3467 12.2241 37.4258L15.1914 25.3959C15.9368 22.3994 16.4484 20.2799 16.9308 17.225H17.0039C17.3547 20.2946 17.837 22.414 18.451 25.4105L20.2635 33.7423C20.892 36.6072 22.6022 38.4198 27.1043 37.4258L34.1497 10.7496H28.4491L26.0519 22.2825C25.3941 25.6444 24.8094 28.2755 24.3563 31.3451H24.2832C23.8739 28.2901 23.3477 25.776 22.6753 22.5017L20.1904 10.7496H14.2559L11.5663 22.1948C10.8208 25.6737 10.1046 28.4801 9.66609 31.4474H9.57839C9.11064 28.6702 8.49673 25.1182 7.82434 21.7563L5.67563 10.7496H-0.317383ZM44.5717 30.2634C44.5717 30.6435 44.5425 31.0235 44.4255 31.3451C44.1663 32.1049 43.673 32.7631 43.0165 33.2253C42.36 33.6874 41.574 33.9298 40.7713 33.9177C39.2803 33.9177 38.0963 33.0699 38.0963 31.2574C38.0963 28.5094 41.1221 27.7493 44.5717 27.7639V30.2634ZM49.98 25.469C49.98 20.9377 48.0506 16.9326 41.5021 16.9326C38.1402 16.9326 35.4506 17.8681 33.9889 18.7159L35.056 22.3702C36.7124 21.3886 38.5975 20.8594 40.5228 20.8354C43.8555 20.8354 44.3963 22.721 44.3963 23.9196V24.2119C37.1462 24.2119 32.5565 26.7115 32.5565 31.8275C32.5565 34.9555 34.8952 37.8789 38.9587 37.8789C41.4437 37.8789 43.5339 36.885 44.791 35.2917H44.9079C44.9079 35.2917 45.7411 38.756 50.3162 37.4258C50.0677 35.9787 49.98 34.4439 49.98 32.6022V25.469ZM58.3556 31.7544V10.7642H52.9473V37.4404H58.3556V31.769M127.29 10.7642V30.4388C127.29 33.1576 127.801 35.0578 128.898 36.2126C129.848 37.2358 131.412 37.8935 133.297 37.8935C134.905 37.8935 136.469 37.6012 137.215 37.3089L137.156 33.0699C136.601 33.2161 135.958 33.3184 135.095 33.3184C133.254 33.3184 132.625 32.149 132.625 29.708V22.1802H137.346V17.0642H132.625V10.7496H127.29M113.301 17.3858V37.4258H118.885V27.1646C118.885 26.6091 118.929 26.1414 119.017 25.6883C119.426 23.5396 121.063 22.1656 123.431 22.1656C124.074 22.1656 124.542 22.224 125.039 22.3117V17.0496C124.635 16.9636 124.223 16.9244 123.811 16.9326C121.721 16.9326 119.353 18.2774 118.359 21.1716H118.213V17.3711H113.301M61.5129 17.3711V37.4258H66.9212V25.6737C66.9212 25.1182 66.9943 24.5335 67.1844 24.0365C67.6229 22.8526 68.7338 21.4639 70.4878 21.4639C72.6804 21.4639 73.7182 23.3203 73.7182 25.9952V37.4258H79.1558V25.5275C79.1558 25.0013 79.2288 24.3581 79.3896 23.905C79.6031 23.1989 80.0381 22.5803 80.6304 22.1407C81.2227 21.701 81.9408 21.4638 82.6785 21.4639C84.9003 21.4639 85.9673 23.2911 85.9673 26.4337V37.4258H91.4195V25.6152C91.4195 19.4029 88.2476 16.9326 84.6956 16.9326C83.1024 16.9326 81.8599 17.3273 80.7344 18.0143C79.7843 18.599 78.9219 19.4322 78.191 20.5138H78.1033C77.6667 19.4212 76.9026 18.4904 75.916 17.8492C74.9294 17.208 73.7685 16.8878 72.5927 16.9326C71.4192 16.8632 70.2498 17.1235 69.2165 17.684C68.1833 18.2446 67.3275 19.083 66.7458 20.1045H66.6728V17.3858H61.4983" fill="white"/>
<path fill-rule="evenodd" clip-rule="evenodd" d="M166.61 15.4941C167.692 15.4941 168.569 14.9241 168.7 14.2078L169.753 2.16333C169.753 0.979345 168.364 0 166.61 0C164.856 0 163.467 0.979345 163.467 2.16333L164.534 14.2078C164.651 14.9387 165.543 15.4795 166.61 15.4795M160.105 19.2507C160.646 18.3152 160.602 17.2628 160.032 16.795L150.136 9.86654C149.113 9.26724 147.578 9.98348 146.701 11.5037C145.824 13.0238 145.971 14.7194 146.994 15.3041L157.957 20.4055C158.644 20.654 159.564 20.1716 160.105 19.2361M173.114 19.2361C173.655 20.1716 174.576 20.654 175.278 20.4055L186.226 15.3041C187.249 14.7194 187.395 13.0238 186.533 11.5037C185.656 9.98348 184.107 9.26724 183.083 9.86654L173.188 16.795C172.632 17.2628 172.588 18.3152 173.129 19.2507M166.61 30.5059C167.692 30.5059 168.569 31.0759 168.7 31.7922L169.753 43.8367C169.753 45.0207 168.364 46 166.61 46C164.856 46 163.467 45.0207 163.467 43.8367L164.534 31.7922C164.651 31.0613 165.543 30.5205 166.61 30.5205M173.114 26.7639C173.655 25.8284 174.576 25.346 175.278 25.5945L186.226 30.6959C187.249 31.2806 187.395 32.9908 186.533 34.4963C185.656 36.0165 184.107 36.7328 183.083 36.1335L173.188 29.205C172.632 28.7372 172.588 27.6848 173.129 26.7639M160.105 26.7639C160.646 27.6848 160.602 28.7372 160.032 29.205L150.136 36.1335C149.113 36.7181 147.578 36.0165 146.701 34.4963C145.824 32.9762 145.971 31.2806 146.994 30.6959L157.957 25.5945C158.644 25.346 159.564 25.8284 160.105 26.7639ZM188.535 35.081H188.638C188.755 35.081 188.857 35.0372 188.857 34.9349C188.857 34.8472 188.799 34.7887 188.652 34.7887H188.535V35.081ZM188.535 35.6072H188.302V34.6571L188.667 34.6279C188.857 34.6279 188.93 34.6571 189.003 34.701C189.062 34.7448 189.106 34.8179 189.106 34.9056C189.106 35.0226 189.018 35.0956 188.901 35.1395C188.989 35.1687 189.047 35.2564 189.076 35.3734C189.106 35.5195 189.12 35.578 189.149 35.6072H188.916C188.886 35.578 188.857 35.4903 188.828 35.388C188.813 35.2857 188.755 35.2418 188.638 35.2418H188.521V35.6219L188.535 35.6072ZM188.682 34.3502C188.243 34.3502 187.936 34.701 187.936 35.1249C187.936 35.5488 188.258 35.885 188.682 35.885C189.106 35.885 189.413 35.5488 189.413 35.1249C189.419 35.0253 189.404 34.9255 189.37 34.8317C189.336 34.7379 189.283 34.6521 189.215 34.5795C189.146 34.5069 189.064 34.4491 188.972 34.4097C188.88 34.3703 188.781 34.35 188.682 34.3502ZM188.682 34.1602C189.237 34.1602 189.661 34.5841 189.661 35.1249C189.661 35.6657 189.222 36.0896 188.682 36.0896C188.553 36.0935 188.424 36.0715 188.303 36.0247C188.183 35.978 188.073 35.9076 187.981 35.8176C187.888 35.7276 187.814 35.6199 187.764 35.5009C187.714 35.382 187.688 35.2541 187.688 35.1249C187.688 34.5841 188.126 34.1602 188.682 34.1602Z" fill="white"/>
</g>
<defs>
<clipPath id="clip0_14_283">
<rect width="190" height="56" fill="white"/>
</clipPath>
</defs>
</svg>
