<svg width="145" height="56" viewBox="0 0 145 56" fill="none" xmlns="http://www.w3.org/2000/svg">
<mask id="mask0_14_293" style="mask-type:luminance" maskUnits="userSpaceOnUse" x="0" y="9" width="47" height="47">
<path d="M46.6068 55.5H0.34787V9H46.6068V55.5V55.5Z" fill="white"/>
</mask>
<g mask="url(#mask0_14_293)">
<path fill-rule="evenodd" clip-rule="evenodd" d="M0.34787 32.9786C0.34787 45.441 10.9423 55.1261 23.2623 55.1261C36.1575 55.1261 46.6068 44.7234 46.6068 32.0199C46.6068 24.589 43.0119 18.0702 37.6914 13.707L33.8075 20.4175C37.0203 23.1511 39.2252 27.3691 39.2252 32.1158C39.2252 40.7436 32.0819 47.839 23.2623 47.839C14.4893 47.839 7.34601 40.745 7.34601 31.8761C7.34601 30.8216 7.44188 29.7671 7.63361 28.7592L0.34787 32.9786ZM30.4522 9.77652C28.2473 8.96166 26.2821 8.62614 24.3169 8.62614C22.8309 8.62614 21.5368 8.81787 20.5781 9.0096L15.5931 17.6374C17.4146 16.5829 19.7633 16.0077 22.3037 16.0077C23.7896 16.0077 25.1317 16.1995 26.5217 16.5829L30.4522 9.77652Z" fill="white"/>
</g>
<path fill-rule="evenodd" clip-rule="evenodd" d="M66.7458 21.2877C64.9572 21.2877 63.3344 21.8725 62.0895 22.9476L61.7266 21.6712H58.6068V37.5642H62.5798V28.9254C62.5798 27.0766 63.8178 25.2018 66.1857 25.2018C68.0386 25.2018 69.1438 26.5055 69.1438 28.6912V37.5642H73.1181V28.3954C73.1181 24.0117 70.6762 21.2877 66.7458 21.2877ZM117.239 29.2486C117.239 31.8 115.574 33.6516 113.281 33.6516C110.986 33.6516 109.321 31.8 109.321 29.2486C109.321 26.6986 110.986 24.8484 113.28 24.8484C115.574 24.8484 117.239 26.6986 117.239 29.2486ZM113.281 20.9358C108.799 20.9358 105.289 24.5868 105.289 29.2486C105.289 33.9118 108.799 37.5642 113.28 37.5642C117.761 37.5642 121.272 33.9118 121.272 29.2486C121.272 24.5868 117.762 20.9358 113.281 20.9358ZM93.5305 29.2486C93.5305 31.8 91.8651 33.6516 89.5726 33.6516C87.2773 33.6516 85.612 31.8 85.612 29.2486C85.612 26.6986 87.2773 24.8484 89.5712 24.8484C91.8651 24.8484 93.5305 26.6986 93.5305 29.2486ZM89.5726 20.9358C85.0902 20.9358 81.5802 24.5868 81.5802 29.2486C81.5802 33.9118 85.0902 37.5642 89.5712 37.5642C94.0522 37.5642 97.5623 33.9118 97.5623 29.2486C97.5623 24.5868 94.0536 20.9358 89.5726 20.9358ZM137.872 21.2877C136.084 21.2877 134.462 21.8725 133.216 22.9476L132.854 21.6712H129.733V37.5642H133.707V28.9254C133.707 27.0766 134.946 25.2018 137.313 25.2018C139.166 25.2018 140.271 26.5055 140.271 28.6912V37.5642H144.246V28.3954C144.246 24.0117 141.804 21.2877 137.872 21.2877Z" fill="white"/>
</svg>
